<svg xmlns="http://www.w3.org/2000/svg" viewBox="0 0 1739.65 1051.61"><defs><style>.cls-1{fill:#bda8c7;}</style></defs><title>Asset 1</title><g id="Layer_2" data-name="Layer 2"><g id="Layer_1-2" data-name="Layer 1"><path class="cls-1" d="M1277.74,734H461.91c45.93,182.52,211.14,317.65,407.92,317.65S1231.81,916.48,1277.74,734Z"/><path class="cls-1" d="M1277.74,528c-45.93-182.52-211.14-317.65-407.91-317.65S507.84,345.49,461.91,528Z"/><path d="M1732.28,73a12,12,0,0,0-11.93-10.41l-82.42-23.27c0,1,0,2,0,3a770.39,770.39,0,0,1-26.7,201.45c-3.27,12.06-7,23.72-11.13,35.11-19.41,53.94-90.38,65.65-126.67,21.27C1325.07,118.59,1111.41,0,869.83,0h-.14C727,0,585.64,40.13,464.48,115.55A772.73,772.73,0,0,0,307.29,245.12c-6.65,7.15-29.59,28.93-53.44,54.24-39.29,41.7-109.56,24.63-124.71-30.62-21-76.48-27.45-162.07-27.45-226.5,0-1,0-2,0-3L19.3,62.55A12,12,0,0,0,7.37,73,876,876,0,0,0,0,186.2c0,449,340.19,818.5,776.87,864.9C585,1008.64,441.42,837.49,441.42,632.81c0-236.6,191.8-428.4,428.41-428.4s428.4,191.8,428.4,428.4c0,204.68-143.54,375.83-335.44,418.29,436.68-46.4,776.86-415.91,776.86-864.9A876,876,0,0,0,1732.28,73Z"/></g></g></svg>