<?xml version="1.0" encoding="utf-8"?>
<!-- Generator: Adobe Illustrator 22.1.0, SVG Export Plug-In . SVG Version: 6.00 Build 0)  -->
<svg version="1.1" id="Layer_1" xmlns="http://www.w3.org/2000/svg" xmlns:xlink="http://www.w3.org/1999/xlink" x="0px" y="0px"
	 viewBox="0 0 1739.7 1051.6" style="enable-background:new 0 0 1739.7 1051.6;" xml:space="preserve">
<style type="text/css">
	.st0{fill:url(#SVGID_1_);}
</style>
<title>Asset 3</title>
<g id="Layer_2_1_">
	<g id="Layer_1-2">
		<radialGradient id="SVGID_1_" cx="869.825" cy="571.4443" r="441.2388" gradientUnits="userSpaceOnUse">
			<stop  offset="2.775371e-02" style="stop-color:#E9C400"/>
			<stop  offset="0.4236" style="stop-color:#A46501"/>
			<stop  offset="0.8097" style="stop-color:#000000"/>
		</radialGradient>
		<path class="st0" d="M1445.4,627.6c4.4-11.1,5.3-23.8,4.2-37.4c1.7-26.2-0.7-50.6-15.8-69.7c-10.1-35.3-19.3-69.9-9.2-95.5H292.9
			c10.2,25.8,5.8,58,1.4,90.3c-4.4,11.1-5.3,23.8-4.2,37.4c-1.7,26.2,0.7,50.6,15.8,69.7c10.1,35.3,19.3,69.9,9.2,95.5h1131.6
			C1436.6,692.1,1441,659.9,1445.4,627.6z"/>
		<path d="M1591.8,73c-0.7-6-4.9-10.4-10-10.4l-69-23.3c0,1,0,2,0,3c0,68-7.5,135.8-22.4,201.4c-2.7,12.1-5.9,23.7-9.3,35.1
			c-16.2,53.9-75.7,65.6-106,21.3C1250.9,118.6,1072.1,0,869.8,0h-0.1C750.3,0,631.9,40.1,530.5,115.6
			c-48.5,36.1-92.7,79.6-131.6,129.6c-5.6,7.1-24.8,28.9-44.7,54.2c-32.9,41.7-91.7,24.6-104.4-30.6c-17.6-76.5-23-162.1-23-226.5
			c0-1,0-2,0-3l-69,23.3c-5.1,0-9.3,4.5-10,10.5c-4.1,37.5-6.2,75.3-6.2,113.2c0,449,284.8,818.5,650.4,864.9
			c-160.6-42.5-280.8-213.6-280.8-418.3c0-236.6,160.6-428.4,358.6-428.4s358.6,191.8,358.6,428.4c0,204.7-120.2,375.8-280.8,418.3
			c365.6-46.4,650.3-415.9,650.3-864.9C1598,148.3,1595.9,110.5,1591.8,73z"/>
	</g>
</g>
</svg>
