<?xml version="1.0" encoding="utf-8"?>
<!-- Generator: Adobe Illustrator 22.1.0, SVG Export Plug-In . SVG Version: 6.00 Build 0)  -->
<svg version="1.1" id="Layer_1" xmlns="http://www.w3.org/2000/svg" xmlns:xlink="http://www.w3.org/1999/xlink" x="0px" y="0px"
	 viewBox="0 0 600 400" style="enable-background:new 0 0 600 400;" xml:space="preserve">
<style type="text/css">
	.st0{fill:#FEFEFE;}
	.st1{fill:#DF4040;}
	.st2{fill:#2C245C;}
	.st3{fill:#682E8D;}
	.st4{fill:#EC572A;}
	.st5{fill:#EC572B;}
	.st6{fill:#5F2B85;}
	.st7{fill:#642C8A;}
	.st8{fill:#29235D;}
	.st9{fill:#E8562B;}
	.st10{fill:#DF532F;}
	.st11{fill:#2A225D;}
	.st12{fill:#DB3934;}
	.st13{fill:#263488;}
	.st14{fill:#B62E5E;}
	.st15{fill:#D9522A;}
	.st16{fill:#832380;}
	.st17{fill:#2C235C;}
	.st18{fill:#1C121C;}
	.st19{fill:#11111C;}
	.st20{fill:#813252;}
	.st21{fill:#030308;}
	.st22{fill:#5D2984;}
	.st23{fill:#160F0C;}
	.st24{fill:#CF3557;}
	.st25{fill:#1A1517;}
	.st26{fill:#E4833A;}
	.st27{fill:#382E84;}
	.st28{fill:#292C7C;}
	.st29{fill:#283890;}
	.st30{fill:#0E040E;}
	.st31{fill:#1B102D;}
	.st32{fill:#0A0409;}
	.st33{fill:#0A0919;}
	.st34{fill:#120C06;}
	.st35{fill:#C64923;}
	.st36{fill:#212454;}
	.st37{fill:#AB4331;}
	.st38{fill:#AD2C6D;}
	.st39{fill:#331749;}
	.st40{fill:#2C1725;}
	.st41{fill:#3C160B;}
	.st42{fill:#5C2883;}
	.st43{fill:#230C16;}
	.st44{fill:#EBA43C;}
	.st45{fill:#1E1624;}
	.st46{fill:#1A1514;}
	.st47{fill:#B82F56;}
	.st48{fill:#030303;}
	.st49{fill:#100E12;}
	.st50{fill:#231C1C;}
	.st51{fill:#171717;}
	.st52{fill:#48213A;}
	.st53{fill:#333541;}
	.st54{fill:#CF4C24;}
	.st55{fill:#693652;}
	.st56{fill:#1F1229;}
	.st57{fill:#040404;}
	.st58{fill:#0F0604;}
	.st59{fill:#030409;}
	.st60{fill:#262A40;}
	.st61{fill:#1C1C1C;}
	.st62{fill:#161118;}
	.st63{fill:#1B1B1B;}
	.st64{fill:#221613;}
	.st65{fill:#190610;}
	.st66{fill:#868686;}
	.st67{fill:#21122C;}
	.st68{fill:#020206;}
	.st69{fill:#251D1E;}
	.st70{fill:#1F1C1D;}
	.st71{fill:#211921;}
	.st72{fill:#151515;}
	.st73{fill:#5F2A87;}
	.st74{fill:#FBAF40;}
	.st75{fill:#DC4F37;}
	.st76{fill:#421119;}
	.st77{fill:#030305;}
	.st78{fill:#2D1917;}
	.st79{fill:#290E1D;}
	.st80{fill:#1D120A;}
	.st81{fill:#08070D;}
	.st82{fill:#29161A;}
	.st83{fill:#180E20;}
	.st84{fill:#38313E;}
	.st85{fill:#28225F;}
	.st86{fill:#4F4F4F;}
	.st87{fill:#E9E9E9;}
	.st88{fill:#F2AF3C;}
	.st89{fill:#E0E0E0;}
	.st90{fill:#010104;}
	.st91{fill:#151113;}
	.st92{fill:#201517;}
	.st93{fill:#E1542E;}
	.st94{fill:#2B1014;}
	.st95{fill:#5F4B4B;}
	.st96{fill:#E6653A;}
	.st97{fill:#0F1537;}
	.st98{fill:#190E19;}
	.st99{fill:#090307;}
	.st100{fill:#622D7F;}
	.st101{fill:#231D25;}
	.st102{fill:#E4552F;}
	.st103{fill:#100C11;}
	.st104{fill:#9D2F37;}
	.st105{fill:#060505;}
	.st106{fill:#E5E5E6;}
	.st107{fill:#CC9733;}
	.st108{fill:#FBB83E;}
	.st109{fill:#DD8A38;}
	.st110{fill:#DA3C44;}
	.st111{fill:#18151A;}
	.st112{fill:#592C6C;}
	.st113{fill:#F5F5F5;}
	.st114{fill:#3F262C;}
	.st115{fill:#1F0B16;}
	.st116{fill:#BC8330;}
	.st117{fill:#0D0612;}
	.st118{fill:#E7E7E8;}
	.st119{fill:#EB503B;}
	.st120{fill:#D73B39;}
	.st121{fill:#EB8D1D;}
	.st122{fill:#090303;}
	.st123{fill:#56267A;}
	.st124{fill:#362F28;}
	.st125{fill:#C23253;}
	.st126{fill:#662D86;}
	.st127{fill:#C63E67;}
	.st128{fill:#281021;}
	.st129{fill:#0E0507;}
	.st130{fill:#31499C;}
	.st131{fill:#1A0B24;}
	.st132{fill:#E98F3B;}
	.st133{fill:#5A4B34;}
	.st134{fill:#3A2416;}
	.st135{fill:#30221D;}
	.st136{fill:#03050A;}
	.st137{fill:#060914;}
	.st138{fill:#27151F;}
	.st139{fill:#D59536;}
	.st140{fill:#711414;}
	.st141{fill:#1C0B16;}
	.st142{fill:#10070F;}
	.st143{fill:#180B19;}
	.st144{fill:#721515;}
	.st145{fill:#2C0C0C;}
	.st146{fill:#130C0C;}
	.st147{fill:#6C112B;}
	.st148{fill:#B7B5B5;}
	.st149{fill:#060101;}
	.st150{fill:#F1F1F1;}
	.st151{fill:#251319;}
	.st152{fill:#6B112B;}
	.st153{fill:#1A1012;}
	.st154{fill:#D1D1D2;}
	.st155{fill:#12090B;}
	.st156{fill:#241C11;}
	.st157{fill:#323232;}
	.st158{fill:#131212;}
	.st159{fill:#1A1618;}
	.st160{fill:#090909;}
	.st161{fill:#32141D;}
	.st162{fill:#DE9B38;}
	.st163{fill:#1B0D1F;}
	.st164{fill:#080808;}
	.st165{fill:#B9812F;}
	.st166{fill:#3A3328;}
	.st167{fill:#5A2880;}
	.st168{fill:#0C0612;}
	.st169{fill:#040302;}
	.st170{fill:#201510;}
	.st171{fill:#1E1007;}
	.st172{fill:#5E4B34;}
	.st173{fill:#E23C3D;}
	.st174{fill:#D75135;}
	.st175{fill:#130409;}
	.st176{fill:#370D1A;}
	.st177{fill:#20080F;}
	.st178{fill:#370E15;}
	.st179{fill:#080101;}
	.st180{fill:#230911;}
	.st181{fill:#191418;}
	.st182{fill:#C46C32;}
	.st183{fill:#363536;}
	.st184{fill:#402951;}
	.st185{fill:#451F62;}
	.st186{fill:#28190F;}
	.st187{fill:#331C46;}
	.st188{fill:#4D2A4B;}
	.st189{fill:#1D1B1B;}
	.st190{fill:#030000;}
	.st191{fill:#F2F2F2;}
	.st192{fill:#FBFBFB;}
	.st193{fill:#141414;}
	.st194{fill:#151213;}
	.st195{fill:#2E161D;}
	.st196{fill:#3A1721;}
	.st197{fill:#361921;}
	.st198{fill:#292325;}
	.st199{fill:#0F0F0F;}
	.st200{fill:#E9E9EA;}
	.st201{fill:#040206;}
</style>
<g>
	<g>
		<path class="st0" d="M248,201c0-18.3,0.1-36.7-0.1-55c0-2.5,0.6-3.1,3.1-3.1c33.3,0.1,66.7,0.1,100,0c2.5,0,3.1,0.6,3.1,3.1
			c-0.1,36.7-0.1,73.3,0,110c0,2.5-0.6,3.1-3.1,3.1c-33.3-0.1-66.7-0.1-100,0c-2.5,0-3.1-0.6-3.1-3.1C248.1,237.7,248,219.3,248,201
			z"/>
		<path class="st1" d="M279,180.5c0-0.3,0.2-0.5,0.6-0.4c0.2,0,0.5,0,0.7-0.1c2.3-1.8,5-2.3,7.9-2.2c1.8,0.1,3.7,0.2,5.3-1
			c0.4-0.2,0.9-0.3,1.3-0.3c2.3,0.3,4.3-0.4,6-2c1.6-1,3.3-1.9,5.1-2.5c1.7-0.5,3.3-1.1,5.1-0.6c1.5,0.9,3.7,0.3,4.6,2.5
			c0.2,0.8,0.1,1.6-0.3,2.3c-0.5,0.6-1.2,0.9-2,1.2c-2.2,0.4-4.2,1.7-6.5,2.1c-5.9,1-11.8,1.7-17.1,4.6c-2,0.5-3.9,0.5-5.9,0
			C282.2,182.8,278.7,184.2,279,180.5z"/>
		<path class="st2" d="M324.7,245.2c-2.7,3.3-5.8,2-8.9,0.8c-1.8-2.3-0.7-5.4-2-7.9c-0.4-1.5-1.4-2.6-1.6-4.2
			c-0.1-0.8,0.1-1.5,0.5-2.2c1.5-1.4,3-2.7,5.3-2.3c3.9,2.4,4.7,6.5,5.7,10.4C324.2,241.7,324,243.5,324.7,245.2z"/>
		<path class="st3" d="M333.2,239.1c-1.6,2.3-3.5,4.2-6.1,5.3c-2.5-5-2.3-10.7-4.5-15.7c0.1-1.2,0.9-1.9,1.8-2.5
			c0.9-0.5,1.9-0.9,3.1-0.7C332.1,228.9,332.7,233.9,333.2,239.1z"/>
		<path class="st4" d="M308.1,248.6c-1,0.5-2.1,1-3.1,1.5c-1.4,0.5-2.9,0.5-4.3,0c-2.4-6.2-1-11.7,3.2-16.6c1.3-0.5,2.4-0.4,3.5,0.6
			C309.1,238.8,308.9,243.7,308.1,248.6z"/>
		<path class="st5" d="M323.1,228.1c3.1,5,3.6,10.6,4,16.3c-0.6,0.9-1.5,0.7-2.3,0.8c-1.9,1.3-1.8-0.2-1.8-1.3
			c0-5.3-1.9-9.8-5.1-13.9c-0.2-0.5-0.1-0.9,0.1-1.3c0.7-0.7,1.6-1.2,2.5-1.4C321.4,227.1,322.4,227.2,323.1,228.1z"/>
		<path class="st6" d="M328.2,168.9c0.6-0.7,1.3-1.3,1.9-2c1.8-0.8,2.4,0.2,2.7,1.7c0,1.4-0.5,2.5-1.2,3.7c-1.7,2.2-3.5,4.4-6.5,4.8
			c-1.8,0.1-3.4-0.4-5-1.2c-1.4-0.8-3-1.4-4.3-2.4c-0.9-1-3.3-1.7-0.9-3.6l-0.1,0.1c2.7-1.1,5.6,0,8.4-0.7
			C324.9,168.8,326.6,169.1,328.2,168.9z"/>
		<path class="st7" d="M308.1,248.6c-2-4.8-0.9-9.7-1-14.6c0.4-0.4,0.8-0.7,1.4-0.9c1.5-0.2,2.8-0.2,3.8,1.1
			c2.4,4.1,2.4,8.1-0.5,11.9C311,247.5,309.5,248,308.1,248.6z"/>
		<path class="st8" d="M338.1,234.2c-0.3,0.5-0.7,1-1,1.5c-4.2-3-4.6-8.4-7.4-12.2c-0.1-0.5-0.1-1,0-1.5c1.1-1.4,2.5-2.4,4.3-2.6
			c4.2,1.3,5.4,5.1,6.9,8.6c0.2,0.8,0.6,1.7-0.6,2C339,231.2,338.1,232.5,338.1,234.2z"/>
		<path class="st9" d="M329.9,222.8c4.1,3.3,4.7,8.7,7.2,12.9c-1.3,1.1-2.6,2.3-3.9,3.4c-2.5-4.1-2.3-9.5-6-13.1
			c-0.8-0.4-0.8-1.1-0.6-1.9C327.4,223,328.5,222.5,329.9,222.8z"/>
		<path class="st10" d="M278.4,242.3c-1.5-1.7-3.1-3.4-4.6-5.1c-1.1-5,2.4-7,6-8.9c0.8-0.1,1.6,0,2.4,0.4c2.5,2,1.6,4.3,0.7,6.7
			C281.5,237.6,282,241.2,278.4,242.3z"/>
		<path class="st11" d="M279.9,228.5c-2.9,2.2-5.2,4.9-6.1,8.7c-2.4,0.1-2-1.6-2-3.1c-0.6-1.3-1.7-2.4-1.3-4c0.8-2.9,2.4-5,5.4-5.6
			C278.3,224.9,279.8,226,279.9,228.5z"/>
		<path class="st12" d="M289.8,162.7c0.3-3.2,1.3-5,4.7-2.7c2,1,0.6,2.7,0.7,4c-0.3,1-0.7,1.9-0.9,2.9c-0.2,1.8,0,3.7-1.2,5.2
			c-1,0.7-2,0.7-3.1,0.2c-0.4-0.3-0.8-0.8-1-1.3C288.9,168.2,287.5,165.3,289.8,162.7z"/>
		<path class="st13" d="M265.2,187.8c1.7-1.4,4.3-1.1,5.9-2.9c1.7-0.3,2.2,0.7,2.3,2.2c-0.6,2.1-1.8,3.7-3.8,4.6
			c-2,0.7-4.2,0.5-6.3,0.5c-1.6-0.1-3.1-0.5-4.5-1.4c-1.1-1.2-3.3-1.8-2.9-4.1c1.7-1.3,3.2-0.1,4.7,0.6
			C262.1,188.2,263.6,188.1,265.2,187.8z"/>
		<path class="st14" d="M285.9,166.9c0.3,0.8,0.2,1.8,1.1,2.3c1.2,0.9,1.9,2.1,1.8,3.6c-0.1,1.2-0.6,2.3-1.5,3.2
			c-0.4,0.3-0.9,0.4-1.4,0.4c-0.8-0.1-1.5-0.3-2.2-0.6c-2.2-1-2.9-2.8-3-5c-0.1-2,0.2-4,0.5-5.9c2.6-3.2,2.6,0.6,3.7,1.4
			C285.3,166.5,285.6,166.7,285.9,166.9z"/>
		<path class="st15" d="M340.9,228c-3.3-1.9-3.5-6.3-6.8-8.1c-0.6-1.4,0.1-2.3,1-3.1c0.4-0.2,0.9-0.3,1.4-0.3
			c3.1,0.8,5.4,2.5,6.2,5.7c-0.1,1.8-0.7,3.4-1.6,4.9C341.1,227.3,341,227.7,340.9,228z"/>
		<path class="st16" d="M279.6,180c0.3-0.7-0.1-0.9-0.6-1.2c-0.8-1.2-1.8-2.2-3.1-2.9l0.1,0.1c-0.5-2.4-1.5-5,0.9-7
			c0.1-0.6,0-1.3,0.9-1.1c3.6,1.3,2.6,5.8,5.3,7.7c0.2,0.4,0.3,0.9,0.3,1.3c-0.8,1.4-1.5,2.8-3.2,3.3
			C280,180.3,279.8,180.2,279.6,180z"/>
		<path class="st17" d="M343.3,204.6c1.5,1.1,1.9,2.6,1.7,4.4c-0.4,0.9-0.2,2.1-1.4,2.7c-1.8,0.7-3.6,0.8-5.4-0.2
			c-1.1-1.2-0.5-2.6-0.5-3.9c0.2-1.1,0.5-2.2,1.4-3C340.6,203.7,341.9,204,343.3,204.6z"/>
		<path class="st18" d="M332,164c3.8-2.6,6-1.9,6.1,2.2c0.1,2.9,1.7,6.9-3,8.2c-1.3-1.1-1.2-2.6-1.1-4.2c0.2-1.7,1.6-3.5-0.9-4.7
			C332.5,165.2,332.1,164.7,332,164z"/>
		<path class="st19" d="M268,201c-1.4-1.9-4.2,0.2-5.5-1.9c0.2-1.2,2.6-0.4,2.2-2.2c0-0.7,0.4-1.1,1-1.5c1-0.6,2.1-1,3.1-1.4
			c0.9-0.4,1.9-0.6,2.9-0.2c2.2,2,1.5,4.1,0.3,6.3c-0.5,0.6-1.1,1.1-1.8,1.5C269.4,201.7,268.6,201.6,268,201z"/>
		<path class="st20" d="M296.9,162.8c-0.1-1,0.8-1.3,1.3-1.9c3.4-2.3,3.8-2.1,5,2.4c0,1.6-0.5,3.1-0.9,4.6c-0.1,0.5-0.3,1-0.6,1.4
			c-0.4,0.7-1,1.1-1.9,1.1c-2.7-1-1.6-3.7-2.5-5.6C297,164.2,296.9,163.5,296.9,162.8z"/>
		<path class="st21" d="M307.1,160c0.8,0.1,1.7-0.3,1.9,1c0.6,0.7,1.4,1.3,1.6,2.2c0.7,2.5-0.8,4.5-1.7,6.6c-0.6,1-1.2,2-2.4,2.5
			c-0.5,0-0.9-0.2-1.3-0.5c-0.5-0.5-0.8-1.2-0.9-2c0-0.5,0-1,0.1-1.5C305.4,165.6,305,162.4,307.1,160z"/>
		<path d="M339.2,204.9c-0.1,1-0.2,2-0.3,3c-1,0.5-1.7-0.1-2.4-0.6c-0.8-0.8-1.7-1.6-1.9-2.8c-0.1-1,0.1-1.9,0.1-2.9
			c0.2-2-0.3-4.1,1.4-5.7c1.7,0.8,3.2,1.9,3.1,4C339.8,201.6,340.5,203.2,339.2,204.9z"/>
		<path class="st22" d="M334.8,189c0.3,0.2,0.4,0.5,0.3,0.8c-0.3,1.7,1.3,3.7-0.7,5.2c-2.1,1.3-4.2,2.6-6.8,1.7
			c-0.4-0.2-0.8-0.6-1-1c0-0.2-0.1-0.5-0.1-0.7c0-0.2,0.1-0.5,0.1-0.7c0.2-0.4,0.5-0.8,0.8-1.1c1-0.8,2-1.7,2.8-2.7
			c0.4-0.5,0.9-1,1.5-1.3C332.7,188.6,333.7,188,334.8,189z"/>
		<path class="st23" d="M335,174.7c0.1,3.4-3,4.4-4.8,6.4c-0.8,0.5-1.2,1.5-2.4,1.2c-1.8-0.9-3.1-2.2-3.4-4.2c0-0.5,0.2-0.9,0.5-1.2
			c3.4,1.3,5.6-0.9,8.1-2.5C333.7,174.2,334.4,174.3,335,174.7z"/>
		<path class="st24" d="M336,195.9c0,2.3-0.1,4.7-0.1,7c-1.5,1.3-2.7,0.4-3.9-0.5c-0.3-0.4-0.5-0.8-0.5-1.3c0.1-1.4,0.3-2.9,0.7-4.2
			c0.4-1,1.1-1.6,1.9-2.2c0.7-0.2,1.4-0.4,1.9,0.5C336.1,195.4,336.1,195.7,336,195.9z"/>
		<path class="st25" d="M268,201c0.7,0,1.4,0,2.1,0c1.5-0.2,1.4,0.8,1.3,1.8c-1.5,1.6-1.1,3.2,0,4.7c0.2,1.3-0.9,1.8-1.6,2.6
			c-0.4,0.4-0.9,0.9-1.4,1.2c-0.4,0.2-0.8,0.1-1.1-0.2C266.8,207.6,266.8,204.2,268,201z"/>
		<path class="st26" d="M335,174.7c-0.7,0-1.4,0-2.1,0c-1.1-0.6-1.8-1.5-2-2.7c0.4-1,0.8-1.9,1.2-2.9c0.7-0.8,0.2-2,1.1-2.7
			c3.7-1.2,2.1,1.4,2,2.8c0,1.7-0.1,3.5-0.1,5.2C335,174.4,335,174.7,335,174.7z"/>
		<path class="st27" d="M307.1,160c0.1,3.2-0.3,6.3-2,9.2c-0.9-0.4-1.4-1.3-1.8-2.1c-0.5-1.3-0.2-2.8-0.6-4.1
			c-0.2-1.6,1.8-1.1,2.2-2.2C305.4,159.9,305.6,158,307.1,160z"/>
		<path class="st28" d="M307.9,170c0.7-2.3,1.5-4.6,2.2-7c0.8-0.6,1.6-0.7,2.2,0.2c0.1,1.7,0.4,3.4-0.3,5.1l0.2,0.3l-0.2,0.3
			c-0.7,0.9-1,2.2-2.3,2.5C308.7,171.4,307.6,171.6,307.9,170z"/>
		<path class="st29" d="M264.8,196.9c0.8,0.3,2.2-0.2,2.4,0.9c0.1,0.7-1,1.1-1.8,1.1c-1,0-1.9,0.1-2.9,0.1c-0.9-0.6-1.7-1.3-2.6-1.9
			c-0.8-1-0.5-1.8,0.4-2.5c1.2-0.6,2.4-0.3,3.4,0.5C264.3,195.5,264.6,196.2,264.8,196.9z"/>
		<path class="st30" d="M282.7,176.1c-2.6-2.1-3-5.5-4.8-8.1c0.7-0.4,1.3-0.7,2-1.1c2.9,0.3,0.8,3,2,4.2c0.1,2.1,0.6,3.9,3,4.4
			C284.5,176.9,283.7,176.6,282.7,176.1z"/>
		<path class="st31" d="M256,186.9c1,1,1.9,1.9,2.9,2.9c-0.1,1.1-0.8,1.5-1.8,1.6c-1.1,0.3-1.9-2.1-3.2-0.3c-1.2-2.5-2.5-5,2-5.3
			c0.3,0.2,0.3,0.5,0.3,0.7C256.2,186.7,256.1,186.9,256,186.9z"/>
		<path class="st32" d="M311.9,246.1c0.4-4,1.9-8,0-12.1c0.3-0.3,0.7-0.3,0.9,0.1c0.7,1,1.5,2,2.2,3c-0.9,2.9,1.2,6-0.8,8.8
			C313.3,246,312.6,246,311.9,246.1z"/>
		<path class="st33" d="M301,249.9c1.3,0.1,2.7,0.2,4,0.3c-3.9,2.1-8,1.6-12,0.7c-0.1-1.1,0.7-1.5,1.5-1.8
			C296.8,248.5,299,248.4,301,249.9z"/>
		<path class="st34" d="M273,187c-0.3-1-1-1.6-1.9-2c1.8-2.1,5-1.2,6.8-3.4c0.8,0.5,1.4,1.1,1.4,2.1c-1,1.5-2.6,2.2-3.8,3.5
			c-0.4,0.2-0.8,0.3-1.3,0.4C273.7,187.5,273.3,187.3,273,187z"/>
		<path class="st35" d="M339.2,204.9c0.2-1.7-1.1-3.3-0.1-5c3.2,0,3.2,2.8,4.2,4.7C342,205.5,340.6,205,339.2,204.9z"/>
		<path class="st36" d="M261.1,194.9c-0.9,0.5-1,1.3-1.1,2.2c-2.7,0-4.1-1.8-5-4c0.3-1.1,1-1.6,2.1-1.6
			C259.1,191.9,260.8,192.5,261.1,194.9z"/>
		<path class="st37" d="M314.1,245.9c0.3-2.9-0.7-6,0.8-8.8c1,2.9,1.4,5.8,0.9,8.9C315.3,246,314.7,245.9,314.1,245.9z"/>
		<path class="st38" d="M268.1,215.9c-0.1-0.6-0.1-1.2-0.2-1.8c0.2-1.9,1-3,3.1-2.5c1.9,1.4,2.7,3.2,2,5.5
			C271.1,218.3,269.6,217,268.1,215.9z"/>
		<path class="st39" d="M269.8,230.3c-1.7-3.7-0.2-7.4-0.4-11.1c2.4,0.8,1.5,3.2,2.4,4.7c0.2,0.7,0.3,1.4,0.3,2.1
			c0,0.7-0.2,1.4-0.6,2.1C271,228.8,270.7,229.8,269.8,230.3z"/>
		<path class="st40" d="M309.9,170.9c0.7-0.7,1.4-1.3,2.1-2c0.1,2.8,2,0.6,2.9,1c-0.9,1.4,0.2,2.2,1,3.1c0.3,0.9-0.1,1.1-0.9,1
			c-1.4-0.7-2.8-1.3-4.2-2C310.6,171.6,310,171.5,309.9,170.9z"/>
		<path class="st41" d="M289,248.8c-2.2,0.3-3.8-0.8-5.1-2.4c-0.7-1.5,0.5-1.7,1.4-2.2c1.3-0.2,2.5,0,3.5,0.9
			c0.3,0.3,0.6,0.7,0.7,1.2C289.5,247.1,289.5,248,289,248.8z"/>
		<path class="st42" d="M278.4,242.3c2-2,1.8-5.1,3.4-7.2c0.2,0.2,0.4,0.3,0.6,0.5c1,1.9,0.9,3.9,0.5,5.9c-0.4,2-2,1.7-3.4,1.7
			C279.2,242.9,278.8,242.6,278.4,242.3z"/>
		<path class="st43" d="M279,183.8c-0.4-0.7-0.8-1.5-1.1-2.2c0.4-0.4,0.8-0.8,1.2-1.1c0.8,2.6,3.8,0.9,5.1,2.4
			c0,0.7-0.2,1.3-0.6,1.9c-0.3,0.4-0.7,0.6-1.1,0.8C280.9,185.7,279.7,185.3,279,183.8z"/>
		<path class="st44" d="M331.5,190c-0.2,0.3-0.4,0.7-0.7,1c-1.6,0.1-1.9-1.1-2.3-2.2c-0.1-0.5,0-1,0.1-1.4c0.6-1.1,0.5-3.2,2.8-2.4
			c0.6,0.5,1.2,1.1,1.7,1.6C332.9,187.8,333,189.3,331.5,190z"/>
		<path class="st45" d="M279.6,243.1c0.9-0.4,1.7-0.8,2.6-1.2c0.4-0.2,0.8-0.3,1.3-0.1c1,0.9,3.1,1,2.1,3.2
			c-0.9,0.1-1.5,0.5-1.7,1.4C282.9,244.7,280.4,245,279.6,243.1z"/>
		<path class="st46" d="M331.4,184.9c-2.1,0.1-0.7,2.8-2.4,3.2c-2.4-1.7-1.7-3.9-0.9-6.1c0.7-0.3,1.4-0.6,2.2-0.9
			C329.5,182.7,331.9,183.4,331.4,184.9z"/>
		<path class="st47" d="M285.1,166.8c-1.9,0-1.2-2.6-2.8-2.9c-0.6,0.5-1,0.4-1.3-0.3c0.9-1.8,2.3-1.9,4-1.4
			C285.8,163.7,285.7,165.3,285.1,166.8z"/>
		<path class="st48" d="M343.9,211.1c0.1-0.8,0.1-1.7,1.1-2.1c0.8,3.1,1,6.2-1,9c-0.2-0.2-0.3-0.4-0.5-0.5c-0.5-0.9-0.6-1.9-0.6-2.9
			C342.8,213.3,343,212.1,343.9,211.1z"/>
		<path class="st49" d="M304.9,160.8c-0.6,0.7-1.2,1.4-1.8,2.1c0.5,1.1-0.1,1.2-0.9,1c-0.1-2.6-0.2-5.3-4-3
			C300.3,155.7,302.6,160.5,304.9,160.8z"/>
		<path d="M341.2,227c0.5-1.8,0.9-3.6,1.4-5.3c-0.3-1.5-1.2-3.3,1.4-3.7c0,0,0,0,0,0C344.3,221.4,343.9,224.6,341.2,227z"/>
		<path class="st50" d="M296.9,162.8c0.3,0.3,0.6,0.6,0.9,0.9c0.1,1.2-0.6,1.6-1.6,1.8c-1,0-1.7-0.5-2.1-1.4
			c0.4-1.4,1.2-2.7,0.5-4.2C297.4,159.3,295.5,162.4,296.9,162.8z"/>
		<path class="st51" d="M289.8,162.7c-1.1,2.7-0.1,5.5,0,8.2c-1.6,0.3-1.5-0.9-1.8-1.9C288.6,166.9,286.3,164,289.8,162.7z"/>
		<path class="st52" d="M281,163.6c0.4,0.1,0.9,0.2,1.3,0.3c-0.1,2.4-0.3,4.7-0.5,7.1c-1.4-1-0.1-3.3-2-4.2
			C280.1,165.7,279.9,164.5,281,163.6z"/>
		<path class="st53" d="M256,186.9c0-0.4,0-0.7-0.1-1.1c2.2-1.8,3.5,0.3,5.1,1.2c0.3,0.2,0.3,0.4,0.2,0.6c-0.1,0.2-0.2,0.3-0.3,0.3
			C259.3,187.5,257.7,187.2,256,186.9z"/>
		<path class="st54" d="M289,248.8c-0.2-0.7-1.3-1.3,0.1-2c1.3-1,2.6-1,4-0.1c0.6,0.8,0.6,1.6,0.1,2.4c-1.1,0.8-2.1,0.5-3.2,0
			C289.6,249,289.3,248.9,289,248.8z"/>
		<path class="st55" d="M271,212c-1.7-0.3-2,1.4-3,2.1c-0.8-0.9-1.1-1.9-0.8-3.1c0.3,0,0.6-0.1,0.9-0.1c1.2-0.6,2.4-1.1,3.7-0.2
			C272.4,211.6,272.1,212,271,212z"/>
		<path class="st56" d="M328.2,168.9c-1.2,1.5-2.8,1.1-4.3,0.9c-0.4-0.3-1-0.3-1.1-0.9C324.6,168.4,326.4,167.5,328.2,168.9z"/>
		<path class="st57" d="M322.8,168.9c0.4,0.3,0.7,0.6,1.1,0.9c-3,0.1-6,0.1-9,0.2C317.3,168.2,320.1,169.1,322.8,168.9z"/>
		<path class="st58" d="M333.1,167.2c-0.4,0.6-0.7,1.3-1.1,1.9c-0.1-1.2-0.3-2.3-2-2.2c0.4-1.1,0.5-2.4,1.9-2.9
			c0.4,0.4,0.8,0.8,1.1,1.2C333.6,165.9,333.5,166.5,333.1,167.2z"/>
		<path class="st59" d="M257,191.8c-0.7,0.4-1.4,0.8-2.1,1.3c-0.3-0.7-0.7-1.3-1-2c1-2.9,2.1-1,3.1,0c0.3,0.2,0.3,0.3,0.2,0.5
			C257.2,191.7,257.1,191.8,257,191.8z"/>
		<path class="st60" d="M261,187.9c0-0.3,0-0.6,0-0.9c1.3,0.5,3.1-0.7,4.2,0.9C263.8,189.4,262.4,189.5,261,187.9z"/>
		<path class="st61" d="M276.9,169.1c-1.4,2.2-0.6,4.7-0.9,7C274.7,173.5,273,170.9,276.9,169.1z"/>
		<path class="st62" d="M335.9,195.2c-0.6,0.1-1.2,0.1-1.8,0.2c-0.5-0.4-0.6-0.9-0.1-1.4c2.1-1-1.1-3.2,1.1-4.2
			C336.5,191.4,336.4,193.3,335.9,195.2z"/>
		<path class="st63" d="M312,163c-0.6,0-1.2,0-1.8,0c-1-0.4-1.2-1.1-1.1-2.1c1.6,0,3.5-0.4,3.8,2.1C312.6,163.5,312.3,163.5,312,163
			z"/>
		<path class="st64" d="M269.8,230.3c0.2-0.8,0.5-1.5,0.7-2.3c1.4,0.2,0.9,1,0.6,1.8c0.3,1.4,0.5,2.9,0.8,4.3
			C269.8,233.6,269.9,231.8,269.8,230.3z"/>
		<path class="st65" d="M268.1,215.9c1.8-0.3,3.1,1,4.8,1.3c0.3,0.4,0.2,0.8-0.1,1.1c-0.6,0.4-1.2,0.5-1.9,0.5
			c-0.6-0.2-1.3-0.3-1.8-0.8C268.8,217.3,268.5,216.6,268.1,215.9z"/>
		<path class="st66" d="M288,169c0.6,0.6,1.2,1.3,1.8,1.9c0.2,0.3,0.3,0.5,0.3,0.9c-0.1,0.2-0.1,0.4-0.2,0.7
			c-0.5,0.5-1.1,0.9-1.8,0.5c-0.4-1.2-0.7-2.5-1.1-3.7C287.3,169.2,287.7,169.1,288,169z"/>
		<path class="st67" d="M269.1,218c0.7,0.1,1.4,0.1,2.1,0.2c1.3,2,1.4,4-0.4,5.7c-1.6-1.3,0-3.5-1.5-4.8
			C269.3,218.7,269.2,218.4,269.1,218z"/>
		<path class="st68" d="M338.1,234.2c-1-2.3,0.4-3.3,2.1-4.2C340,231.7,339.2,233,338.1,234.2z"/>
		<path class="st69" d="M331.5,190c0.6-1.1,0.4-2.6,1.6-3.5c1,0.5,1.4,1.5,1.7,2.5C333.7,189.3,332.6,189.6,331.5,190z"/>
		<path class="st70" d="M290,249.2c1.1,0,2.1-0.1,3.2-0.1c0.8-0.2,1,0.1,0.9,0.8c-0.3,0.3-0.7,0.6-1,0.9
			C291.7,250.9,290.6,250.5,290,249.2z"/>
		<path class="st71" d="M275.9,176c2-0.1,3,0.9,3.1,2.9C277.4,178.5,276.6,177.3,275.9,176z"/>
		<path class="st72" d="M285.1,166.8c0-1.6-0.1-3.1-0.1-4.7c2.1,1.2,1.1,3.1,0.9,4.8c0,0-0.4,0-0.4,0L285.1,166.8z"/>
		<path class="st48" d="M312,163c0.3,0,0.6,0,0.9,0c0.3,1.9,1,3.8-0.8,5.3C312,166.6,312,164.8,312,163z"/>
		<path class="st73" d="M286.4,175.9l0.4,0c1.3-1.2,2.4-2.6,4.4-2.9c2.6-0.5,5-1.8,7.6-2c2.5,0,5.1-0.9,7.3,1.1l-0.1,0
			c0.6,0.3,0.6,0.6,0,0.9c-1.4,1-2.9,2-4.7,2c-2,1.2-4,2.5-6.5,2l-0.4,0.1l-0.4,0c-0.4,0.4-0.9,0.6-1.4,0.8c-2.2,0-4.4,0.6-6.5-0.6
			C285.6,176.6,285.8,176.2,286.4,175.9z"/>
		<path class="st74" d="M313,176c0.6,0,1.2,0,1.8-0.1c0.7,0.1,1.1,0.6,1.4,1.2c0.1,0.4,0.1,0.9-0.1,1.3c-0.9,1.4-2,2.7-2.8,4.3
			c-1.3,2-1.5,4,0,6c0.3,0.6,0.4,1.3,0.2,2c-0.2,0.7-0.7,1.2-1.3,1.6c-0.5,0.1-0.9,0.2-1.4,0c-0.7-0.3-1.2-0.8-1.6-1.4
			c-0.8-1.3-1.2-2.6-1.4-4.1c-0.1-1.4-0.1-2.9,0.1-4.3c0.1-0.5,0.2-0.9,0.4-1.4C309.4,179,311.4,177.7,313,176z"/>
		<path class="st75" d="M290,182.8c5.1-4.1,11.4-3.9,17.3-4.7c0,0.2,0,0.4,0,0.7c-0.2,0.4-0.5,0.8-0.8,1c-2,1.1-3.9,2.2-5.7,3.6
			c-0.5,0.2-0.9,0.3-1.4,0.3C296.3,184,292.9,185.4,290,182.8z"/>
		<path class="st76" d="M292.8,177.2c0.4-0.1,0.7-0.1,1.1-0.2c-0.5,2.7-2.8,1.9-4.3,1.9c-3.2,0-6.3,0.3-9.3,1.4
			c0.6-1.3,1.2-2.6,2.5-3.5c0.9,0.1,1.9,0.1,2.8,0.4C288,177.6,290.4,177.7,292.8,177.2z"/>
		<path class="st77" d="M290,182.8c3.4,0.1,6.8,0.1,10.2,0.2c0,1.2-0.9,1.9-1.8,2c-5.2,0.6-10.3,1.6-15.3-0.8
			c0.4-0.4,0.8-0.8,1.1-1.3C286.1,182.9,288,182.9,290,182.8z"/>
		<path class="st78" d="M307,179c0.1-0.3,0.3-0.5,0.4-0.8c1.9-0.7,3.8-1.4,5.7-2.1c-0.4,2.4-2.2,3.6-3.9,5.1
			C307.9,180.9,307.2,180.2,307,179z"/>
		<path class="st79" d="M294.7,177c2.2-0.7,4.3-1.3,6.5-2C299.7,177.8,297.5,178.5,294.7,177z"/>
		<path class="st80" d="M316,177c-0.4-0.3-0.8-0.7-1.2-1c0.1-0.6,0.2-1.3,0.3-1.9c0.3-0.3,0.6-0.7,0.9-1c1.7,0,3,0.7,4,2.1
			c-0.1,0.2-0.3,0.3-0.4,0.5c-0.9,0.6-2,0.8-2.9,1.3C316.5,176.9,316.2,176.9,316,177z"/>
		<path class="st81" d="M305.9,173c0-0.3,0-0.6,0-0.9c0.7-0.7,1.3-1.4,2-2.1c0.5,0.7,1.2,0.9,2,0.9c0.3,0.4,0.7,0.8,1,1.1
			C309.3,172.3,307.6,172.7,305.9,173z"/>
		<path class="st82" d="M312.8,234.1c-0.3-0.1-0.6-0.1-0.9-0.1c-1.3-0.1-2.6-0.2-3.8-0.3c-1.6-0.4-3.9,0.1-3.8-2.7
			c0.4-1.8,0.8-3.5,3.2-3.4c1.2,1.6,2.1,3.7,4.6,3.6c0.4,0.2,0.7,0.5,1,0.8C312.9,232.7,312.8,233.4,312.8,234.1z"/>
		<path class="st68" d="M313,232c-0.3,0-0.7,0-1,0c-0.4-2.4,1.3-3.2,3.2-3.9c1.1-0.1,2.2,0,2.8,1.1c0,0.3,0,0.6-0.2,0.8
			C316.2,230.7,314.6,231.4,313,232z"/>
		<path class="st83" d="M323.1,228.1c-1,0-2.1,0-3.1,0c0-2.6,1.8-2.7,3.7-2.8c0.8,0.3,1.4,0.6,1.3,1.6
			C324.4,227.3,323.7,227.7,323.1,228.1z"/>
		<path class="st84" d="M325,226.9c-0.4-0.3-0.7-0.6-1.1-1c-0.3-0.4-0.3-0.9,0-1.3c1-0.8,2-1.4,3.3-0.6c0,0.7,0,1.3,0,2
			C326.5,226.3,325.7,226.6,325,226.9z"/>
		<path class="st85" d="M294.1,249.9c-0.3-0.3-0.6-0.6-0.9-0.8c-0.1-0.6-0.2-1.2-0.3-1.8c1-1.9,3.6-2.2,4.3-4.4
			c0.7-1.1,1.2-2.2,1.5-3.5c0.3-1.5,0.7-3,1.5-4.3c0.6-0.9,1.3-1.7,2.4-2.3c0.7-0.1,1.3-0.2,1.2,0.8c-1.9,5.2-3.4,10.5-2.8,16.2
			C298.7,249.9,296.4,249.9,294.1,249.9z"/>
		<path class="st86" d="M303.8,233.7c-0.2-0.3-0.4-0.4-0.7-0.6c-0.6-0.4-0.7-1-0.6-1.6c0.1-0.4,0.4-0.7,0.8-0.9
			c0.6-0.2,1.2-0.1,1.6,0.5c-0.2,2.3,2,1.9,3.1,2.7c-0.3,0.1-0.6,0.2-0.8,0.2C306,233.9,304.9,233.8,303.8,233.7z"/>
		<path class="st87" d="M324.2,225.4c-0.1,0.2-0.1,0.4-0.2,0.6c-1.7,0.1-3.1,0.7-4,2.1c-0.7,0.4-1.4,0.7-2,1.1c-1-0.1-2-0.3-3-0.4
			c-0.4-0.3-0.6-0.7-0.8-1.2c-0.2-1-0.1-1.9,0.2-2.8c0.5-1.2,1.2-2.1,2.3-2.8c1.9-1.2,3.9-1,5.8-0.2c0.7,0.3,1.4,0.7,1.8,1.4
			C324.7,223.9,324.6,224.7,324.2,225.4z"/>
		<path class="st88" d="M330.9,172c1.2,0.5,2,1.3,2,2.7c-2,3-3.9,6.4-7.9,2.2l-0.4-0.4l0.3-0.4C327.9,176.1,328.7,173.1,330.9,172z"
			/>
		<path d="M325,176.2c0,0.3,0,0.5,0.1,0.8c0,0.4,0,0.7,0,1.1c-0.5,0.6-1.2,0.7-1.9,0.5c-1.4-0.4-2.6-1.1-3.4-2.3
			c-0.2-0.5-0.1-0.9,0.3-1.2c0,0,0,0,0,0C321.7,175.4,323.3,175.8,325,176.2z"/>
		<path class="st89" d="M324.2,225.4c-0.1-0.7-0.1-1.5-0.2-2.2c-0.3-1.5-0.3-3,0.3-4.4c0.5-1,1.3-1.5,2.4-1.7c1-0.2,2.1-0.1,3,0.3
			c0.7,0.3,1.3,0.8,1.7,1.5c0.6,1.4-0.1,2.4-1.3,3.2c-0.2,0.3-0.3,0.5-0.2,0.9c-0.9,0.4-1.8,0.8-2.7,1.2
			C326.2,224.5,325.2,224.9,324.2,225.4z"/>
		<path class="st90" d="M330.1,222c0.4-0.9,0.9-1.9,1.3-2.8c0.4-1.4,1.5-2.1,2.8-2.4c0.2,0.1,0.4,0.1,0.6,0.2
			c-0.3,1-0.6,1.9-0.8,2.9C332.7,220.5,332,222.2,330.1,222z"/>
		<path class="st91" d="M279.9,228.5c-1.3-1.2-2.6-2.4-4-3.6c-0.3-0.3-0.5-0.7-0.5-1.2c0.1-0.4,0.4-0.8,0.8-1
			c1.8,0.1,3.6,1.1,5.5,0.6c1,0.2,1.9,0.5,2.9,0.3c0.4,0.1,0.7,0.4,1,0.8c0.4,1.1,0.4,2.2-0.1,3.2c-1,1-2.4,1-3.6,1.5
			C281.3,229,280.6,228.7,279.9,228.5z"/>
		<path class="st92" d="M281.9,229.2c0.5-1.6,1.4-2.2,2.9-1.2c1.5,2.7,0.7,5.1-1.2,7.3c-0.5,0.2-1,0.1-1.5-0.2c0,0-0.3,0-0.3,0
			C282,233.1,283.7,231.2,281.9,229.2z"/>
		<path class="st93" d="M276,224c0,0.3,0,0.6,0,0.9c-2.2,1-3.1,3.3-4.8,4.8c-0.2-0.6-0.4-1.2-0.6-1.8c0.2-0.7,0.4-1.3,0.6-2
			c0.8-1.5,0.8-3.6,2.9-4.2C275.7,221.6,275.3,223.3,276,224z"/>
		<path class="st94" d="M298,172.1c-2.2,1.3-4.7,1.1-7,1.7c-0.8-0.3-1.2-0.8-1-1.7c0,0,0.1-0.4,0.1-0.4c1,0.1,1.9,0.2,2.9,0.2
			c0.5-0.5,0.7-1.1,0.9-1.7c0.7-1.5,1.7-1.9,3.2-1c0.6,0.4,1,0.9,1.3,1.5C298.5,171.4,298.4,171.7,298,172.1z"/>
		<path class="st95" d="M296.8,169.8c-1.6-1.1-1.9,0.9-2.9,1.2c-0.9-1.6,0-3.4-0.7-5c0.3-0.6,0.5-1.3,0.8-1.9
			c0.7,0.2,1.4,0.5,2.1,0.7C298.1,166.3,298.6,167.9,296.8,169.8z"/>
		<path d="M293.3,166.1c1,1.5,0.2,3.3,0.7,5c-0.3,0.3-0.7,0.6-1,1C293.1,170,293.2,168.1,293.3,166.1z"/>
		<path class="st96" d="M257,191.8c0-0.2,0-0.5,0-0.7c0.6-0.4,1.3-0.9,1.9-1.3c1.1,1.1,2.5,1.4,4,1.3c0.7,0.6,1.7,0.2,2.3,0.9
			c0.2,0.4,0.2,0.8,0.2,1.2c-0.2,1.1-0.5,2.1-1.4,2.8c-1-0.3-2-0.7-2.9-1C259.7,193.9,258.4,192.9,257,191.8z"/>
		<path d="M273,187c0.3,0,0.6,0,0.9,0c0.7,0.4,1.5,0.8,1.4,1.9c-0.4,1-1.1,1.7-1.6,2.7c-0.6,1-1.3,1.8-2.5,1.8
			c-0.7-0.2-1.2-0.6-1.6-1.2c-0.1-0.5-0.1-0.9,0.2-1.3C270.9,189.6,272,188.3,273,187z"/>
		<path class="st97" d="M269.9,190.9c0.1,0.3,0.1,0.6,0.1,0.9c-1.5,1.7-3.2,1.6-5,0.5c-0.7-0.3-1.7-0.2-2-1.2
			C265.3,191,267.6,190.9,269.9,190.9z"/>
		<path class="st98" d="M290,172.1c0.3,0.6,0.7,1.1,1,1.7c-1.4,0.7-2.8,1.4-4.2,2.2c-0.2-1.3,0.7-2.1,1.3-3
			C288.7,172.7,289.3,172.4,290,172.1z"/>
		<path class="st99" d="M285,178c-1,0.1-1.7-0.3-2.2-1.1c0-0.3,0-0.5-0.1-0.8c0.7-0.2,1.4-0.5,2.2-0.7c0.5,0.2,1,0.4,1.5,0.5
			c-0.2,0.4-0.3,0.7-0.5,1.1C285.7,177.4,285.4,177.8,285,178z"/>
		<path class="st100" d="M344,218c-1.4,0.9-0.6,2.6-1.4,3.7c-2-1.9-3.9-3.7-6.5-4.8c-0.8-1.8,0.4-3,1.1-4.4c0.3-0.4,0.6-0.6,1.1-0.8
			c2.3,0.5,4.3,1.5,5.6,3.5C343.9,216.1,343.9,217.1,344,218z"/>
		<path class="st101" d="M337.9,213c-0.6,1.3-1.2,2.6-1.8,3.9c-0.4,0-0.8,0.1-1.2,0.1c0,0,0,0,0,0c-0.7-1.2-0.8-2.5-1.2-3.8
			c0.4-0.9,1.2-1.3,2.1-1.5C336.9,211.5,337.5,212.1,337.9,213z"/>
		<path class="st102" d="M343.8,215.2c-1.9-1-3.7-2.1-5.6-3.1c-0.5-0.4-0.5-0.8,0.1-1.2c1.9,0.1,3.7,0.1,5.6,0.2
			C343.9,212.5,343.9,213.8,343.8,215.2z"/>
		<path class="st103" d="M338.3,210.9c0,0.4,0,0.8-0.1,1.2c-0.1,0.3-0.3,0.6-0.4,0.9c-0.6-0.3-1.2-0.6-1.8-0.9
			c-0.7-0.2-1.2-0.6-1.4-1.3c0.2-1.7,0.9-3,2.5-3.8c0.5,0.3,1.1,0.6,1.6,0.9C338.7,208.9,338.5,209.9,338.3,210.9z"/>
		<path class="st104" d="M333.1,167.2c0-0.6,0-1.3,0-1.9c0.8-0.5,1.7-1.3,2.4,0c0.8,1.4,0.8,2.7-0.4,3.9
			C334.5,168.5,335.8,165.8,333.1,167.2z"/>
		<path class="st105" d="M271.2,193c0.6-0.7,1.2-1.3,1.8-2c2.4-2.1,5-2.8,7.8-0.8c2.6,2.5,3.1,5.5,1.8,8.7
			c-2.1,5.1-7.3,5.4-11.6,0.9c1.2-1.9,1.7-3.9,0.2-5.9c-0.3-0.2-0.4-0.4-0.3-0.6C271,193.1,271.1,193,271.2,193z"/>
		<path class="st106" d="M271,199.9c0.3,0.1,0.7,0,1,0.2c2.9,2.2,5.9,3.4,8.7,0.1c2.6-3.1,2.2-6.4-0.6-9.3c-0.3-1.2,0.4-1.7,1.3-2.1
			c3.2,0.3,4.4,2.4,5.1,5.1c-0.3,1.9-0.1,3.7,0,5.6c-0.8,2.9-2.5,5-5.4,6c-3.2,1.3-6.3,0.6-9.4-0.7c-0.7-0.5-1.3-1-0.8-2
			c-0.3-0.6-0.6-1.2-0.8-1.8C270.4,200.6,270.7,200.2,271,199.9z"/>
		<path class="st107" d="M271.2,193c0,0.3,0,0.7,0,1c-0.8,0.3-1.5,0.5-2.3,0.8c-0.9-0.6-2-0.6-2.9-1c-0.4-0.2-0.7-0.4-1-0.8
			c0-0.2,0-0.5,0-0.7c1.7-0.2,3.3-0.3,5-0.5C270.4,192.2,270.8,192.6,271.2,193z"/>
		<path class="st108" d="M266.2,193.1c1.2,0,2.6-0.3,2.7,1.6c-0.9,0.4-1.6,1.6-2.9,1.1C265.2,194.9,265.1,194,266.2,193.1z"/>
		<path class="st109" d="M266.2,193.1c-0.1,0.9-0.1,1.8-0.2,2.7c-0.4,0.3-0.8,0.7-1.3,1c-0.3-0.3-0.5-0.6-0.8-0.9c0-1.1-0.2-2.3,1-3
			C265.4,193.1,265.8,193.1,266.2,193.1z"/>
		<path class="st110" d="M296.8,169.8c0.3-1.7,0-3.4-0.7-5c0.5-0.4,1.1-0.8,1.6-1.1c2.5,1.5,0.1,4.7,2.2,6.3
			c0.3,1.8-0.8,1.6-1.9,1.2C297.6,170.7,297.2,170.3,296.8,169.8z"/>
		<path d="M298,171.2c0.7-0.3,1.8,0.1,1.9-1.2c0.4-0.4,0.8-0.7,1.1-1.1c0.3-0.3,0.7-0.4,1-0.5c0.4,0,0.8,0.1,1.2,0.2
			c0.7,0.3,1.3,0.9,1.8,1.5c0.3,0.7,0.6,1.3,1,2c-2.7,0-5.3,0-8,0C298,171.8,298,171.5,298,171.2z"/>
		<path class="st111" d="M302.9,169c-0.4,0-0.7-0.1-1.1-0.1c-0.3-0.3-0.6-0.6-0.8-1c0.4-1.3,0.7-2.7,1.1-4c0.3-0.3,0.6-0.7,0.9-1
			c1.5,1.1,0.8,2.7,1,4.1C304.5,168.1,303.9,168.7,302.9,169z"/>
		<path class="st0" d="M301,168c0.7-0.1,0.9,0.3,0.8,1c0,0-0.4,0-0.4,0s-0.4-0.1-0.4-0.1C301.1,168.6,301.1,168.3,301,168z"/>
		<path class="st112" d="M302.9,169c0.4-0.7,0.8-1.3,1.1-2c0.3,0.7,0.7,1.4,1,2.1c0,0.3-0.1,0.6-0.1,0.9
			C304.2,170.1,303.3,170,302.9,169z"/>
		<path class="st113" d="M337.2,207c0,1.8-1.5,2.7-2.4,3.9c-0.7,0.9-1.6,0.9-2.6,0.5c-1.7-0.6-0.5-5.6-4.3-2.8
			c-1,0.3-1.9,0.3-2.9-0.2c-2.8-2.2-2.2-4.9-1.1-7.7c0.6-0.5,1.3-0.8,2.1-0.8c2.1-0.1,3.9,0.4,5.3,2c1,1.3,3,1.3,3.8,2.8
			C335.8,205.5,336.5,206.3,337.2,207z"/>
		<path class="st114" d="M335.1,204.8c-1.2-0.8-2.9-0.4-3.8-1.8c0.1-0.5,0.3-0.8,0.9-0.8c1.3,0.2,2.5,0.4,3.8,0.7
			C335.6,203.5,335.3,204.2,335.1,204.8z"/>
		<path class="st115" d="M334,194c0,0.5,0.1,0.9,0.1,1.4c-0.4,0.5-0.8,1-1.2,1.4c-0.9,1.3-2.5,1.5-3.9,1.9c-1.2,0.3-2.4,0.4-3.6,0.1
			c-0.7-0.2-1.3-0.6-1.7-1.3c-0.1-0.8,0.2-1.4,0.8-1.9c0.4-0.3,0.9-0.4,1.3-0.4c0.5,0.1,0.9,0.3,1.2,0.6
			C329.8,196.5,331.8,195,334,194z"/>
		<path class="st74" d="M329.1,189c0.6,0.7,1.2,1.3,1.7,2c-0.4,1.5-1.4,2.4-2.9,2.9c-0.3-0.2-0.7-0.2-1,0.1l0.1,0.2
			c-0.5,0.1-0.9,0-1.3-0.3C325.2,190.9,326.8,189.7,329.1,189z"/>
		<path class="st74" d="M327,193.9c0.3-0.5,0.6-0.6,1-0.1c0,0-0.5,0.1-0.5,0.1L327,193.9z"/>
		<path class="st116" d="M325.8,193.2c0.4,0.3,0.8,0.6,1.2,0.9c-0.1,0.3-0.1,0.6-0.2,0.9c-0.3,0.2-0.6,0.3-0.9,0.1
			c-0.2-0.3-0.4-0.6-0.5-0.9C325.5,193.8,325.6,193.5,325.8,193.2z"/>
		<path class="st117" d="M325.9,194.9c0.3,0.1,0.6,0.1,0.9,0.2c0.1,0.3,0.1,0.6,0.3,0.9c-0.4,0-0.8,0-1.2,0
			c-0.1-0.2-0.2-0.4-0.4-0.5C325.7,195.3,325.8,195.1,325.9,194.9z"/>
		<path class="st118" d="M329.1,189c-1.1,1.4-2.2,2.8-3.3,4.2c-0.1,0.2-0.2,0.3-0.3,0.6c-0.3,0.8-0.9,0.8-1.6,0.9
			c-2.2,0.1-4.3,0-6.5-0.6c-1.3-0.3-2.7-0.7-3.9-1.3c-0.6-0.4-1.1-0.9-0.7-1.7c0-0.6-0.1-1.2-0.1-1.9c-1.3-2.4-1-4.8,0-7.3
			c0.4-1.8,2-2.7,3.1-4c2.3-1.9,4.7-0.4,7-0.1c0.7,0.1,1.3,0.2,2,0.3c1,1.3,2.1,2.7,3.1,4c0.3,2,0.6,4.1,0.9,6.1
			C329,188.4,329.1,188.7,329.1,189z"/>
		<path class="st119" d="M325.3,198.1c1.2-0.1,2.4-0.1,3.6-0.2c3-1,4.2-0.1,3.1,3c0,0.4,0.1,0.8,0.1,1.2c-0.3,0.3-0.6,0.5-0.9,0.8
			c-1.4-1.5-3.2-2.1-5.2-2.2C325.4,200.1,324.1,199.4,325.3,198.1z"/>
		<path class="st120" d="M332,201c0.2-2.3-0.9-3.2-3.1-3c1.1-1.1,2.6-0.9,4-1.1C332.9,198.3,333.5,199.9,332,201z"/>
		<path class="st121" d="M285.9,193.5c-1.6-1.5-3.2-3-4.8-4.4c-0.2-0.1-0.4-0.1-0.5-0.2c-0.8-0.5-1.8-0.7-2.8-0.8
			c-1.1-0.1-2.1-0.2-2.9-1.1c0.7-1.9,1.8-3.3,4.1-3.2c1.3,0.6,2.7,1.1,4,1.7c3.5-0.6,4.4,2.3,5.8,4.4c0.5,0.9,0.9,1.8,1.1,2.7
			c0.5,2.3,0.4,4.5,0.2,6.8c-0.2,1.3-0.7,2.4-1.3,3.5c-1.3,1.8-2.8,3.4-4.6,4.7c-1.5,0.9-3,1.7-4.7,2.2c-2,0.5-4.1,0.5-6.2,0.1
			c-1.1-0.3-1.9-1-2.3-2c-1.4-1.7-6.2-3.4-0.1-5.2c0.3,0.4,0.6,0.9,0.9,1.3c3.1,1.5,6.2,2.8,9.4,0.1c2.6-0.6,3-3.3,4.7-4.9
			C286.3,197.3,285.5,195.4,285.9,193.5z"/>
		<path class="st122" d="M272.9,209.1c2.3-0.1,4.5-0.2,6.8-0.3c1-0.5,1.4,0.1,1.5,1c-0.4,0.7-1.1,1.1-1.8,1.4
			c-1.7,0.7-3.5,1-5.3,0.9c-0.8-0.1-1.5-0.3-2.1-0.9c-1.3-0.1-2.6-0.2-3.9-0.3c0.3-0.3,0.7-0.6,1-1
			C270.2,209,271.7,209.6,272.9,209.1z"/>
		<path class="st123" d="M272.9,209.1c-1.1,1.3-2.5,0.8-3.9,0.8c-0.7-2,1.4-1.2,2-2C271.6,208.3,272.3,208.7,272.9,209.1z"/>
		<path class="st124" d="M274.8,187c1.4,0,2.7,0.1,4.1,0.1c0.1,2.1-1.8,1.5-2.9,2.1c-0.5,0.1-0.8,0-1.1-0.5
			c-0.4-0.6-0.7-1.2-1.1-1.8C274.2,187,274.5,187,274.8,187z"/>
		<path class="st125" d="M272,211.2c0.7,0,1.4,0,2,0c1.5,1.9,2.6,4.1,4.3,5.9c0.1,1.7-0.6,2.8-2.1,3.5c-0.8,0.2-1.5,0.1-2.2-0.2
			c-0.9-0.6-1.6-1.4-1.1-2.6c0-0.2,0-0.4,0.1-0.7c-0.6-1.7-1.3-3.5-1.9-5.2C271.3,211.8,271.7,211.5,272,211.2z"/>
		<path class="st126" d="M272.9,217.9c0.4,0.6,0.8,1.2,1.2,1.8c-0.2,0.8,0.6,1.6,0.1,2.4c-1,1.3-2.1,2.5-3.1,3.8
			c-0.1-0.7-0.1-1.3-0.2-2c0.1-1.9,0.3-3.8,0.4-5.7C271.8,218.1,272.3,218,272.9,217.9z"/>
		<path class="st127" d="M283.2,235.1c0.6-2.4,1.1-4.7,1.7-7.1c0.1-1.3,0.3-2.7,0.4-4c-0.4-1.8,0.8-2.9,1.9-4.1
			c0.3-0.3,0.7-0.6,1.1-0.8c1.5-0.9,3-2,4.6-2.7c0.4-0.2,0.8-0.4,1.3-0.5c2.4-1.2,5.6,0.5,7.7-1.8c1-0.7,2.2-1.1,3.4-1.3
			c1.5-0.1,3.1-0.1,4.6,0c1.6,0.2,3,0.6,4.4,1.4c1.2,0.9,1.6,1.9,0.7,3.2c-3.1,2.3-5.6,5.2-8.3,7.9c-1.5,1-2.3,2.4-2.6,4.1
			c-0.2,0.6-0.6,1.1-1.1,1.5l0.1,0c-0.8,1.5-1.9,2.8-2.6,4.4c-0.6,1.2-1,2.5-1.2,3.8c-0.5,1.6-1.2,3.1-2.2,4.5
			c-1.9,3.4-4.9,3.1-8.1,2.4c-1.1-0.4-2.3-0.7-3.4-1.1c-0.9-1-1.7-2-2.6-3C282.3,239.7,282.1,237.4,283.2,235.1z"/>
		<path class="st128" d="M289,246.1c2.9-0.4,6.1,0.1,8-3c0.4-0.4,0.7-0.4,1,0c-0.4,3-2.5,4-5.1,4.2c-1.3-0.1-2.6-0.3-3.9-0.4
			C289,246.6,289,246.3,289,246.1z"/>
		<path class="st129" d="M283.2,235.1c0,2.3-0.1,4.6-0.1,7c-0.3,0-0.6,0-0.9-0.1c-0.6-2.3-0.3-4.6,0-6.9
			C282.5,235.1,282.8,235.1,283.2,235.1z"/>
		<path class="st130" d="M287.7,190c-1.1-2-2.3-3.9-4.7-4.5c0-0.5,0-0.9,0-1.4c5.7-0.8,11.6,1.3,17.2-1.2c0.2,0,0.5,0,0.7-0.1
			c1.5-2.1,4.4-2.1,6.1-4c0,0-0.1,0-0.1,0c1.1,0.3,1.9,1,2.2,2.1c-0.1,0.3-0.2,0.5-0.3,0.7c-0.7,1.7-0.2,3.5-0.4,5.3
			c0,0.8,0.1,1.6-0.5,2.3c-2.6,1.9-5.8,1.7-8.6,2.7C295.3,192.2,291.1,193.5,287.7,190z"/>
		<path class="st131" d="M285,178c0.3-0.3,0.6-0.6,0.9-1c2.3,0.1,4.6,0.1,6.9,0.2C290.3,178.8,287.6,177.7,285,178z"/>
		<path class="st132" d="M309.9,191c0.4,0.3,0.7,0.5,1.1,0.8c0.9,3.4-2,3.2-3.8,3.9c-1.2,0.4-2.5,0.5-3.5,1.4
			c-0.4,0.3-0.7,0.5-1.2,0.6c-0.9,0.3-1.8,0.2-2.7,0c-1.2-0.3-2.4-0.4-3.6-0.4c-2.3-0.2-4.9,0.3-6.5-2.2c-0.3-0.8-0.3-1.6,0.1-2.3
			c2.4-1.5,5.2-0.3,7.8-1c1-0.4,2-0.1,3-0.5c2.4-0.5,4.7-0.9,7-1.7C308.8,189.4,309.4,190.1,309.9,191z"/>
		<path class="st133" d="M312.9,181.9c0,2.4,0,4.8,0,7.3C309.2,186.7,310.5,184.3,312.9,181.9z"/>
		<path class="st134" d="M306.8,194.9c1.4-1.1,3.9-0.6,4.3-3.1c0.3,0.1,0.6,0.2,1,0.3c0.8,0.3,1.7,0.4,2.4,1.1
			c0.3,0.7,0.3,1.3-0.1,2c-0.3,0.3-0.7,0.6-1.1,0.8c-1.8,0.7-3.6,0.7-5.4-0.1C307.3,195.6,307,195.3,306.8,194.9z"/>
		<path class="st135" d="M323,177.7c-2.3,0-4.7,0.1-7,0.1c0.1-0.3,0.1-0.6,0.1-0.9c0,0-0.1,0-0.1,0c1.2-0.9,2.2-2,3.9-1
			C320.9,176.6,322,177.1,323,177.7z"/>
		<path class="st136" d="M308.1,187c-0.1-1.8-0.7-3.6,0.7-5.1c0,1.7,0,3.4,0,5.2C308.6,187,308.4,187,308.1,187z"/>
		<path class="st137" d="M308.1,187c0.2,0,0.5,0,0.7,0c0.4,1.3,0.7,2.6,1.1,4c-0.6-0.4-1.3-0.7-1.9-1.1c-0.6-0.3-0.7-0.7-0.1-1.1
			C308,188.2,308.1,187.6,308.1,187z"/>
		<path class="st74" d="M314,192.7c-0.8,0.3-1.6,0.4-2-0.7c0.3-0.3,0.7-0.7,1-1c0.2,0.3,0.4,0.7,0.6,1l0.4,0.2L314,192.7z"/>
		<path class="st138" d="M307,179c-0.9,3.1-4.1,2.6-6.1,4C301.9,180,304.8,180,307,179z"/>
		<path class="st139" d="M319.9,176c-1.3,0.3-2.6,0.7-3.9,1c0-3.4,2.5-1.7,4.1-2C319.9,175.3,319.9,175.7,319.9,176z"/>
		<path class="st87" d="M314.9,227.9c0,0.3,0,0.6,0.1,1c-1.2,0.8-2.4,1.8-3,3.2c-2.9,0.2-6.4,1.1-4-4c0.1-0.2,0.2-0.4,0.2-0.6
			c1-1.2,2.3-1.4,3.8-1.2C313.2,226.3,314.1,227.1,314.9,227.9z"/>
		<path class="st140" d="M302.9,230.9c0.1-0.7,0.2-1.3,0.3-2c1-1,1.4-2.4,2.6-3.2c1.1-0.4,1.8,0.2,2.4,1c0.2,0.5,0.1,0.9-0.3,1.3
			c0,0,0-0.1,0-0.1c-2.1-0.1-2.2,1.9-3.1,3C304.3,231,303.6,231,302.9,230.9z"/>
		<path class="st141" d="M300.1,235c0.1-2,1.2-3.3,2.9-4.1c0,0.7,0.1,1.4,0.1,2.1c-0.7,0.6-1.4,1.3-2.1,1.9
			C300.7,235.5,300.4,235.5,300.1,235z"/>
		<path class="st142" d="M300.1,235c0.3,0,0.6,0,1,0c-0.4,1.6-0.8,3.3-1.2,4.9c-1,0.1-1.5-0.1-1-1.2
			C298.8,237.3,299.3,236.1,300.1,235z"/>
		<path class="st143" d="M298.9,238.7c0.3,0.4,0.7,0.8,1,1.2c-0.4,1.1-0.7,2.4-1.8,3.1c-0.3,0-0.7,0-1,0
			C297.6,241.6,298.2,240.2,298.9,238.7z"/>
		<path class="st144" d="M307.8,227c-0.6-0.3-1.2-0.7-1.8-1c-0.2-0.2-0.3-0.4-0.3-0.6c0.1-0.2,0.2-0.3,0.2-0.3c1.8-3.6,4.4-6.3,8-8
			c1.3,0.8,1.8-0.8,2.8-0.9c1.1-0.3,2.3-0.4,3.4-0.3c1,0,2,0.2,2.8,0.8c0.4,0.3,0.7,0.8,0.8,1.2c0,1.6,1.3,3.6-1.7,4
			c-1.8-0.2-3.8-1.1-5.2,0.9c-0.6,0.8-1.3,1.5-1.9,2.3c-0.7,0.9-1.4,1.8-2.8,1.4C310.7,225.7,309.3,226.7,307.8,227z"/>
		<path class="st145" d="M321.9,221.1c2.7-0.2,0.8-2.1,1.2-3.2c0.9-0.2,1.4,0.2,1.6,1c-0.2,1.4,0.8,3-0.8,4.2
			c-0.7-0.1-1.3-0.2-2-0.3C321.5,222.3,321.4,221.7,321.9,221.1z"/>
		<path class="st146" d="M321.9,221.1c0,0.6,0,1.1,0,1.7c-1.7-0.8-3.3-0.7-5-0.1C317.9,219.8,320.2,221.3,321.9,221.1z"/>
		<path d="M312,226c1-0.3,2-0.7,3.1-1c0,0.9-0.1,1.9-0.1,2.8c-1.3,0.6-2-0.5-2.9-1c-0.2-0.2-0.3-0.3-0.2-0.5
			C311.9,226.1,311.9,226,312,226z"/>
		<path class="st147" d="M322.9,217c-1,0-2.1-0.1-3.1-0.1c-1-1-2.5-0.8-3.7-1.3c-0.7-0.6-1.3-1.1-2.2-1.3c-1-0.4-2-0.7-3.1-1
			c-2-0.3-3.9-0.8-5.7,0.6c-1,0.4-2,0.8-3,1.1c-2.3,2-5.8-0.8-7.9,1.8c-0.4,0-0.8,0.1-1.1,0.1c-1.2-0.3-2.6,1.2-3.6-0.5
			c-0.5-1.5,0-2.7,1.1-3.7c1.5-0.9,3.1-1.7,4.2-3.1c0.9-0.7,1.9-1.1,3.1-1.2c1.3,0.1,2.6,0.3,3.6-0.8c0.5-0.5,0.9-0.9,1.4-1.3
			c1-0.7,1.9-1.8,3.2-2c0.4,0,0.9,0.1,1.3,0.3c1.3,0.9,2.6,1.4,4,0.3c0.4-0.3,0.8-0.5,1.2-0.6c1.6-0.5,3.1,0.2,4.5,0.8
			c1.4,0.7,2.8,0.6,4.3,0.3c2.4-0.3,2.3,2.4,3.8,3.2c1.5,0.9,3,0.3,4.4-0.1c1.5,0,2,0.8,2,2.2c0.3,1.1,1.4,1.9,1.1,3.2
			c-0.6,1.5-1.3,3-2.6,4c-1,0-2,0-2.9,0C325.8,216.7,324.1,218.4,322.9,217z"/>
		<path class="st148" d="M329.9,217.8c-0.7-2,0.8-2.8,2-3.9c0.6-0.3,0.8-1.4,1.8-0.7c1.9,0.8,1.7,2.2,1.2,3.8
			c-1.4,0.4-1.7,2.5-3.5,2.2C330.9,218.7,330.4,218.2,329.9,217.8z"/>
		<path class="st149" d="M322.9,217c1.3,0.7,3.2-1.7,4.1,0.8c-0.9,0.1-1.8,0.2-2.2,1.2c-0.5-0.3-1.1-0.7-1.6-1
			C323.1,217.6,323,217.3,322.9,217z"/>
		<path class="st150" d="M276,220.1c1.2-0.8,1.7-2,2.2-3.3c-0.7-2.2,1.4-3,2.3-4.4c1-1,1.6-2.2,2.8-3c0.9-0.4,1.9-0.4,2.8-0.2
			c0.7,0.3,1.3,0.8,1.6,1.5c0.5,1.2,0.8,2.4,1.1,3.6c0.2,1.6-0.1,2.9-1.4,4c-3.8,0-3,4.3-5.3,5.7c-2.5,2.4-4.2,0-6-1.1
			C275.2,222,275.2,221,276,220.1z"/>
		<path class="st151" d="M282.1,224c1.2-1.8,0.9-3.7-0.3-5.6c2-0.2,3.6-0.3,5.2-0.4c0.4-0.4,0.9-0.4,1.3,0c0.4,0.7,0.4,1.4-0.2,2.1
			l0.1,0.1c-2,0.5-3.1,1.9-4,3.6C283.6,225,282.8,224.2,282.1,224z"/>
		<path class="st152" d="M284.1,223.7c-0.4-3.1,1-4.2,4-3.6c-0.9,1.3-1.9,2.6-2.8,3.9C284.9,223.9,284.5,223.8,284.1,223.7z"/>
		<path class="st153" d="M276,220.1c0,0.9,0,1.9,0,2.8c0,0.4,0,0.7,0,1.1c-0.6-0.6-1.2-1.2-1.9-1.8c0-0.8-1.8-1.6-0.1-2.4
			C274.7,219.9,275.4,220,276,220.1z"/>
		<path class="st154" d="M275,188.8c0.4-0.1,0.7-0.1,1.1-0.2c1.7,0,3.3-0.7,5,0.1c0,0,0,0.3,0,0.3c-0.3,0.6-0.7,1.2-1,1.7
			c-2.4-1.6-4.7-0.2-7.1,0.2C272.8,189.5,273.7,189,275,188.8z"/>
		<path class="st155" d="M333.7,213.2c-0.6,0.2-1.2,0.5-1.8,0.7c-0.3-1-0.5-1.9-0.8-2.9c0.4-0.5,0.8-0.5,1.3-0.1
			c0.8,0,1.6,0,2.3,0.1c0.4,0.4,0.9,0.8,1.3,1.2C335.3,212.5,334.5,212.8,333.7,213.2z"/>
		<path class="st156" d="M281.2,204.1c-3.1,3.8-6.3,2.6-9.4-0.1C275,204.3,278.1,205.6,281.2,204.1z"/>
		<path class="st157" d="M285.9,193.5c0.8,1.9,1.5,3.8,0,5.7C284.5,197.3,284.6,195.5,285.9,193.5z"/>
		<path class="st158" d="M325.3,198.1c0.3,0.9,0.5,1.8,0.8,2.7c-0.7,0.1-1.3,0.2-2,0.3c-0.7,0-1.3-0.1-1.9-0.4
			c-1.8-0.8-4.1-0.7-5.4-2.5c-0.2-0.4-0.3-0.9-0.3-1.4c0.1-0.5,0.3-0.9,0.7-1.3c0.4-0.2,0.9-0.3,1.4-0.4c1.9,0.4,4,0.1,5.5,1.7
			C324.4,197.4,324.9,197.7,325.3,198.1z"/>
		<path class="st159" d="M322.9,200c0.4,0.4,0.8,0.7,1.2,1.1c0.8,2.2-1.1,4.8,0.9,6.8c0.3,0.2,0.4,0.4,0.3,0.6
			c-0.1,0.2-0.2,0.3-0.3,0.3c-1.9-0.2-1.9-3-4-2.8c-0.3-0.3-0.5-0.8-0.6-1.2C320.6,202.9,321.4,201.3,322.9,200z"/>
		<path class="st160" d="M332.5,210.8c-0.4,0-0.9,0.1-1.3,0.1c-0.3-1.1-0.7-2-2.1-1.9c-1,0.3-1.2-0.1-1-1c0.6-1.6,1.8-2.4,3.6-3.4
			C331.9,207.1,332.2,209,332.5,210.8z"/>
		<path class="st161" d="M328,208.1c0.3,0.3,0.7,0.7,1,1c-1.4,1.3-2.8,1.4-4-0.2c0-0.3,0-0.6,0-0.9C326,208,327,208,328,208.1z"/>
		<path class="st162" d="M324,197c-2-0.1-4.3,0.7-6-1.1c-0.3-0.5-0.2-1,0.3-1.3c2-0.2,4.1-0.2,6.1-0.7c0.4,0,0.8-0.1,1.1-0.1
			c0.1,0.4,0.2,0.7,0.4,1.1l0.1,0.3c-0.5,0.2-0.7,0.7-1.1,0.8C324.6,196.3,324.3,196.6,324,197z"/>
		<path class="st163" d="M324.9,196c0-0.7,0.5-0.9,1.1-0.8c0,0.3-0.1,0.6-0.1,0.8C325.6,196,325.3,196,324.9,196z"/>
		<path class="st164" d="M325.2,184.8c-0.1,3.1-1.4,5.2-4.7,5.3c-3.5,0.1-5.2-2-5.2-5.2c0-3.1,1.8-5,4.9-5
			C323.3,179.9,324.9,181.8,325.2,184.8z"/>
		<path class="st165" d="M318,195c0,0.3,0,0.5,0,0.8c-0.3,0-0.7,0.1-1,0.1c-1,0.1-2,0-2.5-1.1c-0.2-0.7-0.3-1.4-0.5-2.2
			c-0.1-0.2-0.2-0.5-0.4-0.7c1.8-0.8,2.8,1.2,4.3,1.2C318.6,193.8,318.6,194.4,318,195z"/>
		<path class="st166" d="M318,195c0-0.6,0-1.2-0.1-1.8c2,1.4,4.5-1,6.5,0.7C322.5,195.7,320.2,194.8,318,195z"/>
		<path class="st167" d="M287.9,202.6c0.4-0.9,0.8-1.7,1.2-2.6c0.6-0.7,0.2-1.9,1.1-2.5c2.2-1.2,4.6-0.4,6.9-0.5
			c1,0,1.9,0.1,2.8,0.7c0.8,1,0.2,1.8-0.4,2.6c-1.7,1.3-3.7,2.1-5.2,3.6c-2,1.1-3.6,3.5-6.5,2.3c-0.3-0.4-0.5-0.9-0.5-1.4
			C287.4,204,287.7,203.3,287.9,202.6z"/>
		<path class="st168" d="M287.7,205.2c0.2,0.4,0.4,0.7,0.6,1.1c0.8,2.2-0.8,3-2.4,3.7c-1,0.1-1.9,0.1-2.9,0.2
			c-0.8,0.5-1.4,0.4-2-0.3c-0.4-0.3-0.8-0.6-1.3-1c1.2-1,2.5-1.8,4.1-1.9C285.3,206.6,286.1,205,287.7,205.2z"/>
		<path class="st169" d="M300.9,191.8c-1,0.1-2,0.2-2.9,0.4c-2.5,0.7-5.1,0.2-7.6,0.4c-0.6,0.1-1.1-0.1-1.6-0.4
			c-0.4-0.7-0.7-1.4-1.1-2.1c4,1.8,8.1,0.6,12.2,0.9C300.9,190.4,301,190.9,300.9,191.8z"/>
		<path class="st170" d="M287.7,205.2c-0.9,1.4-2.1,2.2-3.8,1.8c1.4-1.4,2.7-2.9,4.1-4.3C287.8,203.4,287.8,204.3,287.7,205.2z"/>
		<path class="st171" d="M288.8,192.1c0.5,0,0.9,0,1.4,0c0.3,0.2,0.4,0.4,0.3,0.6c-0.1,0.2-0.1,0.3-0.2,0.3c0,0.6,0,1.3,0,1.9
			c0.4,1,0.8,1.9,0,2.9c-0.4,0.7-0.8,1.4-1.1,2.2C289,197.4,288.9,194.7,288.8,192.1z"/>
		<path class="st172" d="M281,188.8c-1.7,0-3.3-0.1-5-0.1c1-0.5,1.9-1,2.9-1.5C280.2,187,280.9,187.6,281,188.8z"/>
		<path class="st173" d="M281.1,213.1c-1,1.3-2,2.5-2.9,3.8c-3.7-0.2-3.8-2.9-4.1-5.6c1.7-0.4,3.3-0.7,5-1.1
			C279.9,210.9,280.7,211.9,281.1,213.1z"/>
		<path class="st174" d="M281.1,213.1c-1.9-0.1-2.2-1.4-2.1-2.9c0.7-0.1,1.3-0.2,2-0.3c0.7,0.1,1.4,0.2,2,0.3
			C283.1,211.6,282.4,212.5,281.1,213.1z"/>
		<path class="st175" d="M294.1,216.8c1.9-3.8,5.4-1,7.9-1.8C300.2,219,296.5,215,294.1,216.8z"/>
		<path class="st176" d="M305.1,213.9c1.5-3.4,3.9-1.8,6.1-1c-0.1,0.7-0.7,0.7-1.1,1C308.4,213.8,306.7,213.9,305.1,213.9z"/>
		<path class="st177" d="M288,220c0-0.7,0-1.3,0-2c0.5-0.7,1.1-1.1,2-1.1c1-0.2,2-1.3,3,0C291.5,218.3,290.3,220,288,220z"/>
		<path class="st178" d="M306,225.1c0,0.3,0,0.6,0,0.9c-0.7,1.2-0.9,2.9-2.8,2.9C303.2,227,303.8,225.4,306,225.1z"/>
		<path class="st179" d="M314,214.2c0.8,0,1.6,0,2,0.9c0.6,0.6,0.6,1.3,0,1.9c-0.6,1.1-1.3,1.3-2,0.1c1.5-0.7,0.7-1.5,0-2.3
			C314,214.6,314,214.4,314,214.2z"/>
		<path class="st180" d="M314,214.2c0,0.2,0,0.4,0,0.7c-1.3-0.3-2.7-0.7-4-1c0.4-0.3,0.7-0.7,1.1-1C312.2,213,313.5,212.9,314,214.2
			z"/>
		<path class="st181" d="M300.9,191.8c-0.3-0.3-0.7-0.6-1-0.8c2.7-0.7,5.3-1.4,8-2.2c0,0.4,0.1,0.7,0.1,1.1
			C305.8,191.1,303.5,191.7,300.9,191.8z"/>
		<path class="st182" d="M290.3,197.9c0-1,0-1.9,0-2.9c2.1,1.6,4.6,0.6,6.9,1.1c0.4,0.8,0.6,1.5-0.5,1.8
			C294.5,197.1,292.4,198,290.3,197.9z"/>
		<path class="st183" d="M298.9,199.9c0.3-0.6,0.6-1.2,0.9-1.8c-0.3-0.5-0.2-0.9,0.1-1.3c0.9-0.1,1.8-0.1,2.8-0.2
			c0.5-0.2,0.9-0.2,1.4-0.1c0.9,0.4,1.8,0.8,2,1.9c-0.5,1.4-1.8,1.6-3,1.8C301.8,200.4,300.3,201.2,298.9,199.9z"/>
		<path class="st182" d="M290.2,193.1c0-0.3,0-0.7,0-1c2.6,0,5.2,0,7.9,0.1C295.6,193.9,292.8,192.6,290.2,193.1z"/>
		<path class="st184" d="M300,196.8c0,0.4-0.1,0.9-0.1,1.3c-1.1-0.1-2.2-0.1-3.2-0.2c0.2-0.6,0.3-1.2,0.5-1.8
			C298.1,196.2,299.3,195.6,300,196.8z"/>
		<path class="st185" d="M303.9,197c-0.4-0.1-0.7-0.2-1.1-0.3c0-0.2,0.1-0.4,0.3-0.5c1.5-1.2,3.2-0.4,4.9-0.6c1,0.3,1.6,0.7,0.8,1.8
			C307.1,198.2,305.5,197.7,303.9,197z"/>
		<path class="st186" d="M307.9,195.9c-1.6,0.1-3.2,0.1-4.8,0.2c0.9-1.4,2.4-1,3.6-1.2c0.4,0.1,0.8,0.1,1.2,0.2
			c0.3,0.2,0.4,0.4,0.3,0.6C308.2,195.8,308,195.9,307.9,195.9z"/>
		<path class="st187" d="M307.9,195.9c0.1-0.3,0.1-0.6,0.1-0.9c1.7,0.4,3.4,0.4,5-0.1c0.5,0.5,0.7,1.2,0.5,1.9
			c-0.3,0.7-0.7,1.2-1.3,1.6c-0.7,0.3-1.3,0.3-2,0.1c-0.7-0.3-1.1-0.8-1.2-1.6C308.6,196.6,308.3,196.2,307.9,195.9z"/>
		<path class="st188" d="M313,196.9c0-0.7,0-1.3,0-2c0.5,0,1-0.1,1.5-0.1c0.8,0.4,1.7,0.7,2.5,1.1c0,0.4,0,0.7,0,1.1
			C315.7,198,314.3,198.2,313,196.9z"/>
		<path class="st189" d="M312,226c0,0.3,0,0.5,0,0.8c-1.5,0-2.9,0.3-4,1.2c0-0.3-0.1-0.7-0.1-1C309.1,226,310.2,224.4,312,226z"/>
		<path class="st190" d="M316,217c0-0.6,0-1.3,0-1.9c1.5,0.1,3.1,0,3.8,1.9C318.5,216.9,317.3,216.9,316,217z"/>
		<path class="st191" d="M298.9,199.9c1.5,0.8,2.6-1.5,4.1-0.7c1,0.3,1.4,0.9,1.4,1.9c-0.3,2,0.9,4.3-1.3,5.9
			c-0.4,0.4-0.8,0.7-1.2,1.1c-1.2,1.2-2.6,1.4-4.1,0.5c-1.9-0.5-2.2-2.4-3.4-3.6c-0.4-0.5-0.7-1.1-0.4-1.7
			C294.8,200.8,297.1,200.7,298.9,199.9z"/>
		<path class="st192" d="M304,200.7c-0.3-0.5-0.6-0.9-1-1.4c1-0.4,2.1-0.8,3.1-1.2c1.2-1,2.5-0.6,3.8-0.3c0.7,0,1.3,0,2,0
			c0.9-0.5,1.8-0.4,2.8-0.2c1.1,1.2-0.3,2.1-0.4,3.2c-0.3,1.6-0.7,3.2-2.3,4.1c-0.2,0.3-0.2,0.6-0.2,0.9c-1.9,1.2-3.3,0-4.9-0.7
			c-0.3-0.1-0.5-0.2-0.8-0.2C304.6,204,303.9,202.5,304,200.7z"/>
		<path class="st150" d="M294.1,203.2c0.3,0.3,0.6,0.5,0.9,0.8c0.2,2,1.8,3.9,0.2,5.9c-0.2,2.7-2,3.3-4.3,3.3
			c-0.4,0.2-0.8,0.2-1.3,0.1c-1.1-0.4-1.7-1.4-2.6-2.1c-0.4-0.4-0.8-0.8-1.2-1.2c0.4-1.5,2.8-1.7,2.4-3.7
			C290.2,205.2,292.1,204.2,294.1,203.2z"/>
		<path class="st193" d="M312.1,205c1-1.5,1-3.2,0.9-5c4-1,2.9,2.9,4.3,4.5c0.1,0.5,0,1-0.3,1.4C315.4,205.6,313.7,205.3,312.1,205z
			"/>
		<path class="st194" d="M304,200.7c1.5,1,1.8,2.7,2.2,4.3c-1.1,0.5-1.5,2.2-3,2.1C304.9,205.1,301.5,202.5,304,200.7z"/>
		<path d="M295.2,209.9c0.6-2-1.9-3.9-0.2-5.9c2.1,0.6,1.4,3.2,2.9,4.2c0.3,0.2,0.4,0.4,0.3,0.6c-0.1,0.2-0.2,0.3-0.3,0.3
			C297.1,209.4,296.1,209.6,295.2,209.9z"/>
		<path class="st195" d="M290.1,212.9c0.3,0,0.6,0.1,0.8,0.2c-0.7,1.2-1.1,2.4-0.9,3.8c-0.4,0.8-1.2,1-2,1.1c-0.4,0-0.7,0-1.1-0.1
			c0.9-1.2,1.6-2.4,1-3.9C288.3,213.1,288.9,212.5,290.1,212.9z"/>
		<path class="st196" d="M307,205.1c1.8-0.8,3.2,1.2,4.9,0.7C310,207.6,308.2,208,307,205.1z"/>
		<path class="st197" d="M317,205.9c0-0.3,0-0.5,0-0.8c1.3-1.3,2.7-1.3,4.1-0.1c0,0.3,0,0.7,0,1C319.6,207.4,318.3,207.4,317,205.9z
			"/>
		<path class="st198" d="M298,209.1c-0.1-0.3-0.1-0.6,0-0.9c1.3,0.8,2.6-0.3,4-0.1C301.2,210.8,299.7,210.4,298,209.1z"/>
		<path class="st199" d="M290.1,212.9c-0.7,0.4-1.4,0.7-2.2,1.1c-1.4-0.6-0.7-1.9-0.9-2.9C288.6,210.9,289.6,211.5,290.1,212.9z"/>
		<path class="st200" d="M321,205c-1.4,0-2.7,0.1-4.1,0.1c-1.4-1-2.1-2.3-2-4.1c0.1-1.5-1-1.3-1.9-1c0.7-0.6,1.3-1.2,2-1.8
			c0.6-0.9,1.3-0.8,2-0.2c2,0.7,3.9,1.3,5.9,2C322.3,201.7,321.6,203.3,321,205z"/>
		<path d="M317,198c-0.7,0.1-1.3,0.1-2,0.2c-1-0.1-2-0.2-3-0.4c0.3-0.3,0.7-0.6,1-0.9c1.3,0,2.6,0,4,0C317,197.3,317,197.7,317,198z
			"/>
		<path class="st201" d="M310,197.8c-1.3,0.1-2.6,0.2-3.8,0.3c-0.8-0.4-1.5-0.8-2.3-1.1c1.7,0,3.4,0,5.1-0.1
			C309.3,197.2,309.7,197.5,310,197.8z"/>
	</g>
</g>
</svg>
