<?xml version="1.0" encoding="utf-8"?>
<!-- Generator: Adobe Illustrator 22.1.0, SVG Export Plug-In . SVG Version: 6.00 Build 0)  -->
<svg version="1.1" id="Layer_1" xmlns="http://www.w3.org/2000/svg" xmlns:xlink="http://www.w3.org/1999/xlink" x="0px" y="0px"
	 viewBox="0 0 2850 1080" style="enable-background:new 0 0 2850 1080;" xml:space="preserve">
<style type="text/css">
	.st0{fill:#4674B7;}
	.st1{fill:url(#SVGID_1_);}
</style>
<title>Shutter Thunder Logo</title>
<g id="Iris">
	<path class="st0" d="M1526.6,478.6l-57.4,95.4l70.3,0c0,0,11.1-23.5,4.1-56.3C1538.6,492.9,1526.6,478.6,1526.6,478.6z"/>
	<path class="st0" d="M1356.5,599l64.6-97.9h-76.3c0,0-11.5,25.8-5.3,57.5C1346,588.1,1356.5,599,1356.5,599z"/>
	<path class="st0" d="M1538.1,578.2h-111.3l30.8,63.8c0,0,26.4-2.4,51.4-23.5C1529.5,601.9,1538.1,578.2,1538.1,578.2z"/>
	<path class="st0" d="M1453.6,642.5l-51.2-103l-42.1,63.2c0,0,16.7,25.4,48.7,35.1C1439.7,647,1453.6,642.5,1453.6,642.5z"/>
	<path class="st0" d="M1429.1,435.6l55.5,104.3l39.1-64.6c0,0-11.3-20.4-49.5-34.8C1448.1,432.4,1429.1,435.6,1429.1,435.6z"/>
	<path class="st0" d="M1346.4,497l110.6-0.3l-32-60.5c0,0-27,2.6-52.4,24.9C1353,477.8,1346.4,497,1346.4,497z"/>
</g>
<g id="Flash">
	
		<linearGradient id="SVGID_1_" gradientUnits="userSpaceOnUse" x1="3182.627" y1="395.2955" x2="3373.9482" y2="203.9743" gradientTransform="matrix(-0.3845 -0.9231 -0.9231 0.3845 2976.5889 3452.5359)">
		<stop  offset="0" style="stop-color:#D1672C"/>
		<stop  offset="0.53" style="stop-color:#EFC531"/>
		<stop  offset="0.67" style="stop-color:#F0C931"/>
		<stop  offset="0.81" style="stop-color:#F4D430"/>
		<stop  offset="0.95" style="stop-color:#FBE72E"/>
		<stop  offset="1" style="stop-color:#FFF12D"/>
	</linearGradient>
	<polygon class="st1" points="1415.8,556.3 1424.9,573.9 1464.1,573.9 1546,438.9 1467.6,517.5 1459.1,501 1427.1,501 1333.3,643.9 
			"/>
</g>
</svg>
